<svg width="48" height="48" viewBox="0 0 24 24" fill="none" xmlns="http://www.w3.org/2000/svg">
  <defs>
    <linearGradient id="shieldGradient48" x1="0%" y1="0%" x2="100%" y2="100%">
      <stop offset="0%" style="stop-color:#0066ff;stop-opacity:1" />
      <stop offset="25%" style="stop-color:#0080ff;stop-opacity:1" />
      <stop offset="75%" style="stop-color:#0052cc;stop-opacity:1" />
      <stop offset="100%" style="stop-color:#003d99;stop-opacity:1" />
    </linearGradient>
    <filter id="shadow48">
      <feDropShadow dx="0" dy="3" stdDeviation="3" flood-color="#004499" flood-opacity="0.4"/>
    </filter>
    <radialGradient id="highlight48" cx="30%" cy="30%">
      <stop offset="0%" style="stop-color:rgba(255,255,255,0.4);stop-opacity:1" />
      <stop offset="100%" style="stop-color:rgba(255,255,255,0);stop-opacity:0" />
    </radialGradient>
  </defs>
  <path d="M12 1L3 5V11C3 16.55 6.84 21.74 12 23C17.16 21.74 21 16.55 21 11V5L12 1Z" 
        fill="url(#shieldGradient48)" stroke="#004499" stroke-width="1.5" filter="url(#shadow48)"/>
  <path d="M12 1L3 5V11C3 16.55 6.84 21.74 12 23C17.16 21.74 21 16.55 21 11V5L12 1Z" 
        fill="url(#highlight48)"/>
  <path d="M9 12L11 14L15 10" stroke="white" stroke-width="3" stroke-linecap="round" stroke-linejoin="round"/>
  <circle cx="12" cy="8" r="2" fill="white" opacity="0.95"/>
  <path d="M7 6h10M7 8h8M7 10h6" stroke="rgba(255,255,255,0.2)" stroke-width="1" stroke-linecap="round"/>
  <circle cx="18" cy="6" r="1" fill="#ff4444" opacity="0.8"/>
</svg>